<svg xmlns="http://www.w3.org/2000/svg" width="1024" height="1024"><path fill="#fff" d="M0 0h1024v1024H0z"/><path fill="#FEFEFE" d="M493 237h38l27 3 27 6 27 9 25 11 18 10 19 13 13 10 11 10 8 7 9 9 9 11 10 12 14 21 9 16 10 21 9 25 6 23 4 22 2 28v16l-2 28-4 23-7 26-7 19-11 24-11 19-11 16-11 14-12 13-18 18-11 9-15 11-19 12-19 10-19 8-24 8-26 6-23 3-18 1h-16l-28-2-22-4-23-6-20-7-20-9-19-10-21-14-14-11-10-9-8-7-9-9-7-8-12-15-16-24-9-16-9-20-9-25-6-24-4-25-1-12v-38l3-26 5-23 6-21 8-20 10-21 10-17 11-16 8-10 12-14 19-19 11-9 13-10 17-11 22-12 23-10 21-7 20-5 26-4z"/><path fill="#00050B" d="M493 237h38l27 3 27 6 27 9 25 11 18 10 19 13 13 10 11 10 8 7 9 9 9 11 10 12 14 21 9 16 10 21 9 25 6 23 4 22 2 28v16l-2 28-4 23-7 26-7 19-11 24-11 19-11 16-11 14-12 13-18 18-11 9-15 11-19 12-19 10-19 8-24 8-26 6-23 3-18 1h-16l-28-2-22-4-23-6-20-7-20-9-19-10-21-14-14-11-10-9-8-7-9-9-7-8-12-15-16-24-9-16-9-20-9-25-6-24-4-25-1-12v-38l3-26 5-23 6-21 8-20 10-21 10-17 11-16 8-10 12-14 19-19 11-9 13-10 17-11 22-12 23-10 21-7 20-5 26-4zm3 4-21 2-31 6-20 6-22 9-19 9-18 11-17 12-11 9-10 9-7 6-7 8-11 12-12 16-11 17-10 18-9 20-7 19-6 23-4 22-2 21v33l2 20 4 23 6 22 8 22 14 29 11 18 12 16 9 11 11 12 13 13 11 9 16 12 19 12 23 12 26 10 24 7 21 4 31 3h21l31-3 29-6 27-9 21-9 22-12 12-8 19-14 13-12 10-9 11-12 12-15 11-16 9-15 8-16 8-18 8-24 6-26 3-23 1-15v-20l-3-31-5-25-8-26-10-24-11-21-14-21-10-13-12-14-17-17-11-9-13-10-15-10-18-10-23-11-30-10-27-6-15-2-14-1z"/><path fill="#004AAD" d="m373 333 3 4 6 12 9 12 7 7 13 8 26 12 16 8 15 8 17 12 12 11 8 10 6 13 7-14 12-14 17-13 13-8 25-13 24-11 10-5 10-8 10-12 8-15 2-4 5 5 6 7-1 3-14 11-14 12-14 11-14 12-14 11-14 12-14 11-14 12-14 11-14 12-8 6-10-9-10-8-34-28-11-9-17-14-11-9-17-14-11-9-17-14-10-8 2-5zm-22 22h5l13 11 10 8 17 14 11 9 17 14 11 9 17 14 22 18 17 14 8 6-1 3-8 7-4 9-8-6-22-18-13-11-10-8-85-70-6-5-1-6 8-11zm316 0h5l9 10 1 6-5 5-10 9-10 8-119 98-2-2-4-8-7-6-2-2 34-28 11-9 17-14 11-9 17-14 22-18 17-14 11-9z"/><path fill="#000205" d="M488 586h8l8 3 8 7 3 8v8l-3 8-8 7-9 3h-7l-9-3-6-5-4-8v-12l4-8 8-6z"/><path fill="#000103" d="M604 587h26l7 3 3 4v8l-4 6 4 2 2 3v9l-5 5-6 2h-27z"/><path fill="#000104" d="M394 587h10l7 15 11 24v3h-10l-3-9h-20l-3 9h-10l3-9 14-32z"/><path fill="#000002" d="M427 587h10l1 18 11-12 6-6h11l-6 7-10 11 2 4 11 14 4 6h-12l-11-14h-4l-2 3-1 11h-10z"/><path fill="#000001" d="M650 587h32v7l-1 1h-22l1 8 19 1v7l-19 1-1 9h23v8h-32z"/><path fill="#000204" d="M534 587h11l11 26v3h2l3-9 8-19 1-1h9l-1 5-16 37h-10l-6-12-12-28z"/><path fill="#004AAD" d="M508 482h7l6 3 4 5 1 2v11l-5 7-4 2h-11l-6-4-3-5-1-7 2-6 5-6z"/><path fill="#000409" d="M339 587h37v8h-14v34h-10v-34h-13z"/><path fill="#fff" d="M487 595h10l7 6 1 3v8l-4 6-4 3h-10l-6-4-2-4v-10l4-6z"/><path fill="#00050C" d="m591 688 4 2 4 11 2 9 2-21 5 3v18l-2 12-4 1v-4h-2l-5-15-2 10-1 8h-2l-1 3-2-10v-12l1-11 1-3z"/><path d="M584 587h10v42h-10z"/><path fill="#00040B" d="M546 691h5l1 4 4 6 1 7-3 10-4 5-6 1-3-3-1-2v-14l3-10z"/><path fill="#0A0F15" d="m564 686 4 1 1 4 4 1 1 1-1 8-4 4 1 6 5 10-1 3-5-5-1-3h-2v8l-2 2h-3l-1-3v-19l3-17z"/><path fill="#00040B" d="m621 690 6 2-1 4-4 2-4 8-3 10 1 6 5-4 1-6-4-1 1-2 6-2h4l-1 9-3 10h-3l-1-4-3 3h-5l-3-4 1-12 5-14z"/><path fill="#000409" d="m397 690 5 1 1 9 4-7h2l-1 6-5 8 2 4 5 7-3 1-6-4v9l-5 4-2-6 1-23 1-8z"/><path fill="#000307" d="m512 688 4 1 1 3 5 4v5l-7 8h-2v14l-4 2-2-5v-16l3-14zm-64 0 4 1 1 3 5 4v5l-7 8h-2v14l-4 2-2-5v-16l3-14z"/><path fill="#00040A" d="M476 689h11l1 2-4 1-1 2h-2l-1 9h5l-2 4-3 1-2 13h6v3l-8 2-3-3-1-8 3-25zm-46 0h11l1 2-4 1-1 2h-2l-1 9h5l-2 4-3 1-2 13h6v3l-8 2-3-3-1-8 3-25zm-14-1 10 1v2l-5 1v2h-2l-1 9h5v3l-6 2v9l-1 4h6l-1 4-7 1-2-1-1-4v-13l3-19z"/><path fill="#00050C" d="m488 692 4 1 3 5 2 3 5-8 1 2-4 11 1 8 1 3v7l-2 2-3-3-2-5-4 5-2 1 1-7 2-5-2-11z"/><path fill="#00050D" d="m532 688 2 1v7l-4 26 6-3 3 1-11 7-4-2v-16l4-16z"/><path fill="#fff" d="M614 611h13l5 2v7l-5 2h-13l-1-1v-9z"/><path fill="#000409" d="m581 690 3 1 1 5-1 19-3 9-3-1-1-7 2-24z"/><path fill="#fff" d="M614 594h12l4 2v6l-3 2h-14v-9zm-216 4h2l5 12v3h-12l1-6zm151 98 2 2 1 9-2 10-1 2h-2l-1-3v-9l2-9zm-34-1 4 2-1 5-5 4 1-10zm-64 0 4 2-1 5-5 4 1-10z"/></svg>